<?xml version="1.0" standalone="no"?>
<!DOCTYPE svg PUBLIC "-//W3C//DTD SVG 1.1//EN" "http://www.w3.org/Graphics/SVG/1.1/DTD/svg11.dtd"><svg t="1762861054993"
  class="icon" viewBox="0 0 1024 1024" version="1.1" xmlns="http://www.w3.org/2000/svg" p-id="3502"
  xmlns:xlink="http://www.w3.org/1999/xlink" width="14" height="14">
  <defs>
    <style>
      @keyframes ashFloat {

        0%,
        100% {
          transform: translateY(0) translateX(0);
          opacity: 0.5;
        }

        25% {
          transform: translateY(-3px) translateX(2px);
          opacity: 0.7;
        }

        50% {
          transform: translateY(-5px) translateX(-2px);
          opacity: 1;
        }

        75% {
          transform: translateY(-3px) translateX(1px);
          opacity: 0.7;
        }
      }

      .ash-particle {
        animation: ashFloat 3.5s ease-in-out infinite;
      }

      .ash-particle:nth-of-type(1) {
        animation-delay: 0s;
      }

      .ash-particle:nth-of-type(2) {
        animation-delay: 0.4s;
      }

      .ash-particle:nth-of-type(3) {
        animation-delay: 0.8s;
      }

      .ash-particle:nth-of-type(4) {
        animation-delay: 1.2s;
      }

      .ash-particle:nth-of-type(5) {
        animation-delay: 1.6s;
      }

      .ash-particle:nth-of-type(6) {
        animation-delay: 2s;
      }

      .ash-particle:nth-of-type(7) {
        animation-delay: 2.4s;
      }

      .ash-particle:nth-of-type(8) {
        animation-delay: 2.8s;
      }
    </style>
  </defs>
  <path
    d="M946.34 871.63a22.26 22.26 0 0 1-22.26 22.27H100.49a22.26 22.26 0 0 1-22.26-22.27 22.26 22.26 0 0 1 22.26-22.26h823.59a22.26 22.26 0 0 1 22.26 22.26z"
    fill="#9CDCF8" p-id="3503"></path>
  <g class="ash-particle">
    <path d="M161 512.84a41.38 41.38 0 1 1-41.38-41.39A41.39 41.39 0 0 1 161 512.84z" fill="#9CDCF8" p-id="3503"></path>
  </g>
  <g class="ash-particle">
    <path d="M340.01 512.84a41.38 41.39 0 1 0 82.76 0 41.38 41.39 0 1 0-82.76 0Z" fill="#9CDCF8" p-id="3504"></path>
  </g>
  <g class="ash-particle">
    <path d="M904.95 512.84m-41.38 0a41.38 41.38 0 1 0 82.76 0 41.38 41.38 0 1 0-82.76 0Z" fill="#9CDCF8" p-id="3505">
    </path>
  </g>
  <g class="ash-particle">
    <path d="M684.56 512.84a41.39 41.39 0 1 1-41.39-41.39 41.4 41.4 0 0 1 41.39 41.39z" fill="#9CDCF8" p-id="3506">
    </path>
  </g>
  <g class="ash-particle">
    <path d="M250.5 323.42m-41.38 0a41.38 41.38 0 1 0 82.76 0 41.38 41.38 0 1 0-82.76 0Z" fill="#9CDCF8" p-id="3507">
    </path>
  </g>
  <g class="ash-particle">
    <path d="M553.67 323.42A41.39 41.39 0 1 1 512.28 282a41.38 41.38 0 0 1 41.39 41.42z" fill="#9CDCF8" p-id="3508">
    </path>
  </g>
  <g class="ash-particle">
    <path d="M732.66 323.42a41.39 41.38 0 1 0 82.78 0 41.39 41.38 0 1 0-82.78 0Z" fill="#9CDCF8" p-id="3509"></path>
  </g>
  <g class="ash-particle">
    <path d="M291.88 702.27a41.38 41.38 0 1 1-41.39-41.4 41.39 41.39 0 0 1 41.39 41.4z" fill="#9CDCF8" p-id="3510">
    </path>
  </g>
  <g class="ash-particle">
    <path d="M553.67 702.27a41.39 41.39 0 1 1-41.38-41.4 41.38 41.38 0 0 1 41.38 41.4z" fill="#9CDCF8" p-id="3510">
    </path>
  </g>
  <g class="ash-particle">
    <path d="M815.45 702.27a41.39 41.39 0 1 1-41.4-41.4 41.4 41.4 0 0 1 41.4 41.4z" fill="#9CDCF8" p-id="3510"></path>
  </g>
</svg>